<svg xmlns="http://www.w3.org/2000/svg" width="12.69" height="15.72" viewBox="0 0 12.69 15.72"><path d="M11.86,3.89A6.64,6.64,0,0,0,9.38,1.05,7.61,7.61,0,0,0,5.23,0H0V15.72H5.23a7.75,7.75,0,0,0,4-1A6.55,6.55,0,0,0,11.78,12a9,9,0,0,0,.91-4.16A9.25,9.25,0,0,0,11.86,3.89Zm-1,7.44A5.71,5.71,0,0,1,8.7,13.8a6.33,6.33,0,0,1-3.47.9H1.13V1h4.1a6.44,6.44,0,0,1,3.44.87,5.77,5.77,0,0,1,2.15,2.43,8.12,8.12,0,0,1,.74,3.52A8.25,8.25,0,0,1,10.84,11.33Z"/><path d="M11.56,7.84a8.12,8.12,0,0,0-.74-3.52A5.77,5.77,0,0,0,8.67,1.89,6.44,6.44,0,0,0,5.23,1H1.13V14.7h4.1a6.33,6.33,0,0,0,3.47-.9,5.71,5.71,0,0,0,2.14-2.47A8.25,8.25,0,0,0,11.56,7.84Z" fill="none" stroke="#000" stroke-miterlimit="10" stroke-width="0.15"/><path d="M1.58,1.62H5.33a5.9,5.9,0,0,1,3.15.8,5.16,5.16,0,0,1,2,2.22,7.35,7.35,0,0,1,.68,3.21A7.52,7.52,0,0,1,10.46,11a5.17,5.17,0,0,1-2,2.25,5.69,5.69,0,0,1-3.17.83H1.58s0-6.23,0-6.24S1.58,1.62,1.58,1.62Z" fill="none" stroke="#000" stroke-miterlimit="10" stroke-width="0.15"/><path d="M2,2.22l3.4,0a5.35,5.35,0,0,1,2.86.73,4.74,4.74,0,0,1,1.77,2,6.6,6.6,0,0,1,.61,2.9,6.91,6.91,0,0,1-.59,2.89,4.75,4.75,0,0,1-1.77,2,5.28,5.28,0,0,1-2.88.75s-3.39,0-3.4,0S2,7.88,2,7.86,2,2.23,2,2.22Z" fill="none" stroke="#000" stroke-miterlimit="10" stroke-width="0.15"/><path d="M2.49,2.82s3,0,3,0a4.74,4.74,0,0,1,2.57.66,4.19,4.19,0,0,1,1.58,1.8,5.87,5.87,0,0,1,.55,2.6,6,6,0,0,1-.54,2.58,4.2,4.2,0,0,1-1.58,1.83,4.67,4.67,0,0,1-2.58.67s-3,0-3,0,0-5,0-5S2.47,2.84,2.49,2.82Z" fill="none" stroke="#000" stroke-miterlimit="10" stroke-width="0.15"/><path d="M2.94,3.42s2.66,0,2.69,0A4.12,4.12,0,0,1,7.91,4a3.71,3.71,0,0,1,1.4,1.58,5.24,5.24,0,0,1,.48,2.29,5.29,5.29,0,0,1-.48,2.28,3.66,3.66,0,0,1-1.4,1.61,4.12,4.12,0,0,1-2.28.6s-2.67,0-2.69,0,0-4.4,0-4.44S2.91,3.44,2.94,3.42Z" fill="none" stroke="#000" stroke-miterlimit="10" stroke-width="0.15"/><path d="M3.39,4s2.3,0,2.34,0a3.58,3.58,0,0,1,2,.53A3.16,3.16,0,0,1,8.93,5.87a4.5,4.5,0,0,1,.42,2,4.56,4.56,0,0,1-.42,2,3.19,3.19,0,0,1-1.22,1.4,3.56,3.56,0,0,1-2,.52s-2.31,0-2.34-.05-.05-3.8-.05-3.84S3.36,4.05,3.39,4Z" fill="none" stroke="#000" stroke-miterlimit="10" stroke-width="0.15"/><path d="M3.84,4.62s1.94-.06,2-.06A3,3,0,0,1,7.53,5a2.78,2.78,0,0,1,1,1.15A4,4,0,0,1,8.9,7.85a4,4,0,0,1-.35,1.68,2.8,2.8,0,0,1-1,1.19,3,3,0,0,1-1.67.44c-.06,0-2,0-2-.06s0-3.19,0-3.24S3.81,4.65,3.84,4.62Z" fill="none" stroke="#000" stroke-miterlimit="10" stroke-width="0.15"/><path d="M4.29,5.22s1.59-.07,1.65-.07a2.51,2.51,0,0,1,1.4.39,2.23,2.23,0,0,1,.83.94,3.2,3.2,0,0,1,.29,1.37,3.25,3.25,0,0,1-.29,1.38,2.38,2.38,0,0,1-.85,1,2.53,2.53,0,0,1-1.38.36c-.06,0-1.61,0-1.65-.07s-.06-2.58-.06-2.64S4.25,5.26,4.29,5.22Z" fill="none" stroke="#000" stroke-miterlimit="10" stroke-width="0.15"/><path d="M4.75,5.82A10.76,10.76,0,0,1,6,5.74a2,2,0,0,1,1.12.32,1.72,1.72,0,0,1,.63.73A2.47,2.47,0,0,1,8,7.86a2.58,2.58,0,0,1-.23,1.08,1.87,1.87,0,0,1-.67.75A2,2,0,0,1,6,10,10.76,10.76,0,0,1,4.75,9.9s-.08-2-.08-2S4.7,5.86,4.75,5.82Z" fill="none" stroke="#000" stroke-miterlimit="10" stroke-width="0.15"/><path d="M5.2,6.42a5.67,5.67,0,0,1,.94-.08A1.4,1.4,0,0,1,7,6.58a1.24,1.24,0,0,1,.44.52,1.88,1.88,0,0,1,0,1.54,1.32,1.32,0,0,1-.48.54,1.4,1.4,0,0,1-.78.21A4.76,4.76,0,0,1,5.2,9.3a13.41,13.41,0,0,1-.09-1.44A13.41,13.41,0,0,1,5.2,6.42Z" fill="none" stroke="#000" stroke-miterlimit="10" stroke-width="0.15"/><path d="M5.65,7a1.92,1.92,0,0,1,.59-.09.89.89,0,0,1,.54.17A.79.79,0,0,1,7,7.41a1.06,1.06,0,0,1,.09.45A1.09,1.09,0,0,1,7,8.34a.8.8,0,0,1-.3.33.9.9,0,0,1-.48.13,1.92,1.92,0,0,1-.59-.1A4,4,0,0,1,5.65,7Z" fill="none" stroke="#000" stroke-miterlimit="10" stroke-width="0.15"/><path d="M6.69,7.86a.35.35,0,0,1-.35.35A.32.32,0,0,1,6.1,8.1.33.33,0,0,1,6,7.86a.34.34,0,0,1,.34-.34.36.36,0,0,1,.25.1A.35.35,0,0,1,6.69,7.86Z" fill="none" stroke="#000" stroke-miterlimit="10" stroke-width="0.15"/><path d="M4.38,5l2,2.57L8.32,5h.47L6.58,7.9l2.15,2.79H8.26L6.35,8.2,4.44,10.69H4L6.11,7.9,3.9,5Z" fill="#fff"/></svg>