<svg xmlns="http://www.w3.org/2000/svg" viewBox="0 0 1281.61 555.76"><defs><style>.cls-1{fill:#fff;fill-rule:evenodd;}</style></defs><g id="Layer_2" data-name="Layer 2"><g id="Layer_1-2" data-name="Layer 1"><path class="cls-1" d="M48.69,150.63l-.86,0c-4.48-.26-7.48-2.85-9.16-7.92a44.89,44.89,0,0,1-1.62-8.43c-.14-1.11-.29-2.25-.46-3.35.27-2.33.52-4.6.76-6.84.54-5,1.06-9.81,1.81-14.55.94-6,2-12.14,3-18C44,80.92,45.9,70,47.23,59.19c.93-7.61.23-15.37-.46-22.87l-.23-2.61c-.31-3.54-5-6.07-7.27-6.74-3.17-.95-6.4-1.67-9.53-2.36-2.63-.59-5.35-1.19-7.95-1.92a4.37,4.37,0,0,1-1.47-.94,3.85,3.85,0,0,1,1.11-1.7l.1-.06c3.17-1.92,6.45-3.91,9.62-4.43l1.82-.3c9.86-1.63,20.06-3.32,30.08-3.32A75.82,75.82,0,0,1,76.22,13c4.18.73,8.43,1.1,12.54,1.45,1.52.13,3,.26,4.54.41,5.79.57,9.45,4.06,9.57,9.1.13,5.22-3.59,9-9.46,9.64-4,.44-8.09.79-12,1.13l-1.31.12A9.65,9.65,0,0,0,73.18,38c-1.53,1.83-2.17,4.35-1.88,7.46C72.69,60.78,70,76.13,67.48,91c-.83,4.78-1.68,9.73-2.4,14.63-.78,5.4-1.5,10.9-2.19,16.22-.61,4.72-1.24,9.6-1.92,14.38l-.14,1a20.86,20.86,0,0,1-1.61,6.67C56.85,148.35,53.31,150.63,48.69,150.63Z"/></g><g id="Layer_2-2" data-name="Layer 2"><path class="cls-1" d="M172.26,141.73a20.65,20.65,0,0,1-2.19-.12c-6.28-.71-9.35-4.72-8.9-11.6a300.62,300.62,0,0,1,4.15-30.78l.08-.52c.69-4,1.1-6.41-.43-8.45s-4.41-2.45-8.32-2.9c-3.32-.38-6.69-.67-10-.94s-6.65-.57-9.94-1a13.06,13.06,0,0,0-1.49-.09c-4.43,0-7.12,2.73-7.39,7.48q-.15,2.86-.28,5.73c-.19,3.82-.37,7.77-.69,11.62-.08,1-.16,1.94-.23,2.91A80.9,80.9,0,0,1,125,126.06c-1.37,5.58-5.52,9.33-10.33,9.33a8.89,8.89,0,0,1-1.54-.13c-5.4-.91-9.29-6.69-8.68-12.88,2.52-25.28,5.26-51,7.91-75.83l1-9.56a28.85,28.85,0,0,1,8.27-17.27,8.19,8.19,0,0,1,6.07-2.84,10.11,10.11,0,0,1,3.18.56,6.54,6.54,0,0,1,4.87,7c-.17,4.32-.75,8.77-1.31,13.07-.21,1.65-.43,3.3-.62,5a9.52,9.52,0,0,1-.32,1.32c-.12.43-.24.86-.34,1.29-1.38,6.22-2.05,10.21.15,13.13s6.14,3.35,12.4,3.73c5.75.35,10.42.79,14.7,1.38a15.82,15.82,0,0,0,2,.14,6.54,6.54,0,0,0,5-1.86c1.76-1.84,1.86-4.43,1.77-6.21a116.28,116.28,0,0,1,4.82-38c2.12-7.36,5.44-8.3,8.1-8.3h.35c5.47.19,7.42,4.78,8.09,8.6,1.79,10.16,3.22,19.16,4.37,27.52a74.7,74.7,0,0,1,.49,8.21c0,1.31.06,2.62.12,3.92.15,17.55-3.62,34.93-7.26,51.74-1.64,7.54-3.33,15.33-4.66,23.09C182.47,138.42,178.57,141.73,172.26,141.73Z"/></g><g id="Layer_3" data-name="Layer 3"><path class="cls-1" d="M249.73,140.43c-.39,0-.78,0-1.17-.05a255.47,255.47,0,0,1-34.49-5.16c-6.63-1.46-8.45-7.79-8.81-12.84a29,29,0,0,1,1.14-10.25c5.09-16.82,7.21-34.27,9.26-51.16.49-4.08,1-8.16,1.53-12.24.92-7,3.42-14.17,5.63-20.48,1.52-4.34,4.77-6.8,10-7.54,3.59-.51,7.13-1.32,10.55-2.1,2.36-.54,4.79-1.09,7.17-1.54l1.88-.35a95,95,0,0,1,13-1.82l.83,0c5.83,0,9.54,2.76,10.45,7.75a10.63,10.63,0,0,1-8.16,12,63.21,63.21,0,0,1-15.14,1.67l-1.82,0-2.07,0c-6.57,0-9.33,1.5-9.45,10.77,0,1.5,0,3,0,4.48v2.55c0,.31,0,.66,0,1,0,12.8.95,14.05,13,16.72l.85.19c2,.44,4.62,2.37,6.32,4.67,1,1.32,1.34,2.54,1,3.46S259.7,82,258,82.43a44.93,44.93,0,0,1-8.51,1.24l-2.28.2c-7.83.74-10.09,2.77-11.53,10.34-.15.83-.3,1.65-.46,2.48a81.9,81.9,0,0,1-2,8.94c-.88,3-.73,5.28.45,7.13,1.78,2.78,5.35,3.3,6.52,3.47,5.08.73,10,1.61,14.52,2.63a26.33,26.33,0,0,1,7.13,2.44,9.27,9.27,0,0,1,4.77,8.37,8.46,8.46,0,0,1-4.82,7.47A28.83,28.83,0,0,1,249.73,140.43Z"/></g><g id="Layer_4" data-name="Layer 4"><path class="cls-1" d="M396.27,137.54c-9.09,0-15.55-3.6-19.21-10.7a91.07,91.07,0,0,1-7.06-18.4c-3.43-12.88-8.82-22.13-17-29.11A13.18,13.18,0,0,0,348.2,77c-.6-.19-1.17-.37-1.66-.57l-3-1.22-1,3.11c-.16.5-.33,1-.5,1.49a28.57,28.57,0,0,0-1.12,3.86c-.8,4.12-1.57,8.26-2.34,12.39-1.37,7.35-2.78,14.94-4.37,22.35-.9,4.21-3.36,6.26-7.52,6.26a13.53,13.53,0,0,1-1.4-.07c-3.36-.35-7.24-2.55-7.09-7.62a209.24,209.24,0,0,1,2.32-22.91c1.81-12.63,3.82-25.46,5.76-37.87q.84-5.44,1.69-10.88c.19-1.18.37-2.37.55-3.55.7-4.63,1.43-9.41,2.37-14,1.36-6.65,4.61-10.89,10.23-13.36a23.37,23.37,0,0,0,6.69-5.08c.95-.92,1.85-1.8,2.78-2.54C356.06,2.4,363.74,0,372.22,0c11.35,0,22.13,4.37,28.14,11.41,4,4.73,7.58,15.35,7.59,22.73.32,14.85-4.87,24-16.82,29.68l-.69.35-.26.13c-4.74,2.4-7.35,3.71-8.12,6.48s.78,5.25,3.6,9.76l.11.18a25.21,25.21,0,0,1,2.78,6c2.12,7.06,4.21,14.26,6.23,21.22,1.56,5.36,3.11,10.72,4.7,16.08a35.43,35.43,0,0,0,1.52,4c.34.78.67,1.52.94,2.25.81,2.18.78,4.08-.07,5.36-1,1.45-2.84,1.82-4.23,1.88Zm-44.9-84.62,2.83-1,6.22-2.18c5-1.75,10.21-3.56,15.26-5.53,2.49-1,9.09-3.54,7.55-11-.83-4-3.54-8.81-11.83-9.37-.48,0-1-.05-1.44-.05-10.08,0-20,6.93-24.26,16.85-1.06,2.51-2.06,5.38-.5,7.73,1.22,1.84,3.33,2.33,5.42,2.44Z"/></g><g id="Layer_5" data-name="Layer 5"><path class="cls-1" d="M456,134.18c-16.53,0-34.11-17.28-36.16-35.56-2-17.46,1.05-33.78,4.25-47.44,2.15-9.15,7.55-17.64,16.51-26,4.75-4.4,11-5,17.55-5.65,2.08-.2,4.24-.41,6.37-.75a31.82,31.82,0,0,1,5-.39c11.14,0,22.52,5.89,31.23,16.16,8.54,10.07,12.81,22.55,11.15,32.59a77.65,77.65,0,0,0-.77,8.48c-.08,1.54-.16,3.14-.3,4.67-1.85,20.34-16.07,45.48-42.93,52.61a36.09,36.09,0,0,1-6.5.86c-1.12.08-2.28.17-3.43.3C457.35,134.15,456.67,134.18,456,134.18Zm6.08-91.94c-5.58,0-9.19,2.31-11.38,7.27-5.51,12.48-6.41,25.62-6.57,35.67,0,1,0,1.87-.06,2.78a46.65,46.65,0,0,0,.13,6.56c1,9,6.45,14.66,14.21,14.66h0a20.19,20.19,0,0,0,8.06-1.84C475,103.62,481.53,95.7,485,85.06c2.93-9,3.43-19.33,1.32-27.63a12.4,12.4,0,0,0-1.77-3.59l-.24-.36c-4.55-7.1-11.18-10.65-20.84-11.2C463,42.26,462.52,42.24,462.07,42.24Z"/></g><g id="Layer_6" data-name="Layer 6"><path class="cls-1" d="M552.4,135.61c-4.17,0-7.8-2.74-9.47-7.16a43.71,43.71,0,0,1-2.66-14.57c-.31-17.74-3.43-35-6.45-49.47-1.45-7-1.87-14.41-2.28-21.6l-.16-2.73c-.28-4.79,2.4-8.74,6.68-9.81A9.93,9.93,0,0,1,540.4,30c3.66,0,6.63,2.21,8.13,6.06A103.25,103.25,0,0,1,553,52.34c1.23,5.84,2.28,11.83,3.3,17.63q.68,3.81,1.36,7.61l.41,2.26,5.64.47.95-1.64q1.82-3.11,3.64-6.19c2.71-4.61,5.52-9.38,8.15-14.16,1.93-3.52,3.8-7.14,5.6-10.64,2.3-4.47,4.69-9.1,7.22-13.51,2.28-4,6-6.27,10.09-6.27,4.33,0,8.2,2.58,10.35,6.91a79.44,79.44,0,0,1,4.57,12.69c.56,1.88,1.14,3.84,1.78,5.75l.2.63a17.34,17.34,0,0,0,3.27,6.35l2.76,3.33,2.16-3.75c.54-1,1.13-1.89,1.71-2.82A42.52,42.52,0,0,0,630,49.84c1.06-2.76,1.87-5.6,2.65-8.34.73-2.57,1.42-5,2.31-7.36l.12-.32c1.79-4.81,3.65-9.79,6.32-14a11.33,11.33,0,0,1,9.68-5.07,12.1,12.1,0,0,1,5.49,1.3c5.12,2.64,7.19,7.85,5.54,14-6.15,22.6-13.19,38.9-22.85,52.85-3.52,5.1-5.65,11-7.71,16.77-.9,2.51-1.82,5.1-2.84,7.53-.48,1.14-.93,2.31-1.37,3.48a44.66,44.66,0,0,1-3.16,7.08A14.65,14.65,0,0,1,611.39,125a17,17,0,0,1-4.65-.67c-6.13-1.76-7.56-9.28-7.86-13.6-.55-7.6-1.42-15.27-2.26-22.69l-.81-7.19a9.22,9.22,0,0,0-.92-2.87c-.22-.5-.49-1.13-.81-1.95l-2.41-6.16-3,5.87c-.63,1.22-1.22,2.3-1.76,3.3-1.1,2-2,3.77-2.84,5.63-1.82,4.26-3.62,8.61-5.36,12.81-3.68,8.9-7.49,18.11-11.7,26.91a24,24,0,0,1-9.08,9.64A10.81,10.81,0,0,1,552.4,135.61Z"/></g><g id="Layer_7" data-name="Layer 7"><path class="cls-1" d="M725.93,128.75a10.88,10.88,0,0,1-10.6-7.3,103.08,103.08,0,0,1-3.62-11.55c-1.16-4.38-4-6.72-8.6-7.14l-.19,0c-2.92-.27-5.23-.48-7.12-.48-7.29,0-9.22,3.47-13.87,11.86l-.75,1.36a36.21,36.21,0,0,1-3.37,5.44c-1.89,2.34-4.16,3.58-6.57,3.58a8.43,8.43,0,0,1-3.62-.87,9.07,9.07,0,0,1-5.06-10.32c3.62-16.46,10.38-33,20.68-50.66,3.49-6,6.91-12.15,10.21-18.1s6.65-12,10.1-17.91a51.79,51.79,0,0,1,8-10.41,7.1,7.1,0,0,1,5-2.28,6.53,6.53,0,0,1,4.89,2.38,28.82,28.82,0,0,1,5.74,10A55,55,0,0,1,729,37.81c.06.7.13,1.4.2,2.09q1.23,12.38,2.38,24.77c1.09,11.56,2.22,23.52,3.44,35.28.44,4.19,1.27,8.29,2,11.91.28,1.38.55,2.69.77,3.91-.15,6.81-3.52,11.66-8.83,12.68A16.45,16.45,0,0,1,725.93,128.75ZM700.64,69.69c-.37.83-.75,1.67-1.13,2.5A59.46,59.46,0,0,0,696.75,79a7.71,7.71,0,0,0,.31,4.62,10.16,10.16,0,0,1,.28,1.07l.86,4.62L702,86.58c.31-.22.79-.48,1.25-.74,1.63-.89,3.65-2,4.08-4.24a33.12,33.12,0,0,0,.31-7.54c0-.89-.06-1.79-.06-2.68v-2L701.87,67Z"/></g><g id="Layer_8" data-name="Layer 8"><path class="cls-1" d="M819.76,139.74c-4.74,0-9.16-2.43-12.43-6.84-6.43-8.63-8.9-18.77-11.52-29.51l-.21-.84c-1.08-4.44-2.34-8.9-3.55-13.22q-.82-2.94-1.64-5.88l-.69-2.53-6.81.9v2.63c0,1,0,1.89.06,2.84a36.75,36.75,0,0,1-.09,5.49c-.23,1.87-.45,3.73-.67,5.6a214.67,214.67,0,0,1-3.38,22.16c-.69,3.08-2.84,6.71-6.21,10.49a10.47,10.47,0,0,1-8,3.6,12.42,12.42,0,0,1-5.78-1.48c-4.58-2.42-6.68-7.36-5.48-12.9.51-2.35,1.2-4.65,1.93-7.08.52-1.72,1.06-3.51,1.53-5.31.12-.47.25-.94.38-1.42a23.11,23.11,0,0,0,1.17-7.32c-.8-15.83,2.68-31.61,5.75-45.53,2.16-9.81,6.12-19.41,9.71-27.5a5.2,5.2,0,0,1,4.79-3.19,5.07,5.07,0,0,1,3.77,1.66c.91,1,1.85,2,2.78,3,4.88,5.25,9.92,10.67,13.25,16.69a250.13,250.13,0,0,1,11.26,24.38c1.49,3.56,3,7.24,4.62,10.83.32.72.66,1.41,1.12,2.34.24.48.5,1,.82,1.67l3.3,6.8,2.26-7.21c.73-2.31,1.45-4.54,2.15-6.72,1.57-4.86,3.06-9.45,4.33-14.15,1-3.66,1.83-7.39,2.64-11,.76-3.4,1.55-6.92,2.46-10.32a53.63,53.63,0,0,1,4.06-11c2-3.87,5-5.83,8.76-5.83a10.39,10.39,0,0,1,1.35.08c4.54.53,7.52,3.32,8.89,8.3,2.49,9.13.45,18.46-1.67,26.49l-3.84,14.53c-3.69,13.89-7.5,28.25-11,42.44-1.73,7-3.53,14.17-9.14,19.24A16.45,16.45,0,0,1,819.76,139.74Z"/></g><g id="Layer_9" data-name="Layer 9"><path class="cls-1" d="M935,128.61a9.8,9.8,0,0,1-7.6-3.09,9.2,9.2,0,0,1-1.87-7.58c2.48-16.87,5.56-34.95,9.7-56.88a141.56,141.56,0,0,1,4.41-16.16c.54-1.71,1.08-3.41,1.59-5.11a6.36,6.36,0,0,0-.23-5.12,6.68,6.68,0,0,0-4.3-3l-2.1-.57a114.22,114.22,0,0,1-12.35-3.87,6.67,6.67,0,0,1-2.82-2.42,18,18,0,0,1,2.12-2.44c4-4.07,11.81-6.25,23.16-6.48h35.39c4,0,6.79,1.69,7.5,4.53A7.28,7.28,0,0,1,983,29a64.46,64.46,0,0,1-13,2.71c-4.72.6-7.5,3-8.73,7.48-5.78,21-9.07,43.78-10.34,71.59-.52,11.46-4.43,16.43-13.95,17.71A13.33,13.33,0,0,1,935,128.61Z"/></g><g id="Layer_10" data-name="Layer 10"><path class="cls-1" d="M1052.89,148.59a10,10,0,0,1-8.93-5.12,196,196,0,0,1-8.79-20.09c-.81-2-1.61-4.07-2.43-6.09-1.89-4.66-3.74-9.45-5.53-14.08-1.4-3.62-2.79-7.25-4.23-10.85a7.64,7.64,0,0,0-2-2.61c-.36-.35-.8-.78-1.31-1.34l-4.2-4.61-1,6.16c-.31,1.94-.59,3.77-.86,5.54-.56,3.64-1.08,7.08-1.72,10.41l-.46,2.46c-1,5.08-2,10.33-3.39,15.28-1.38,4.76-5,7.84-9.14,7.84a8,8,0,0,1-1.28-.1c-4.83-.72-7.92-5-7.5-10.32.71-9.09,2.05-18.33,3.35-27.27l.81-5.57c1-6.82,2.14-13.55,3.46-20,2.1-10.18,4.57-22,7.38-33.53,1.41-5.78,4.39-8.59,9.64-9.1a15,15,0,0,0,6.27-2.61c.39-.24.77-.48,1.15-.7,7.09-4.1,13.45-6.1,19.44-6.1a28.24,28.24,0,0,1,14,3.85c8.1,4.52,12.86,11.87,14.56,22.48,2.8,17.44-2.4,30-15.88,38.47-4.15,2.6-5.39,6.22-3.79,11l1.12,3.39c2.83,8.49,5.74,17.27,8.2,26a73.16,73.16,0,0,1,2.74,16c.25,5.18-2.32,9.29-6.7,10.72A10,10,0,0,1,1052.89,148.59Zm-25.63-84.42,3-.83c1-.28,2-.51,3.1-.76a35.21,35.21,0,0,0,7.71-2.45,10,10,0,0,0,5.12-6.77,12.09,12.09,0,0,0-1.79-9.93,9.39,9.39,0,0,0-7.62-3.61,11.41,11.41,0,0,0-7.45,2.8,70.1,70.1,0,0,0-8.59,9c-2.64,3.29-2.43,5.77-1.8,7.28s2.29,3.42,6.56,3.85c.44,0,.9.07,1.44.08Z"/></g><g id="Layer_11" data-name="Layer 11"><path class="cls-1" d="M1128.39,145.75c-.5,0-1,0-1.48-.06h-.12l-8.66-.43c-9.06-.45-18.43-.9-27.57-1.78-7.87-.76-13.34-6.05-14.63-14.15-.54-3.35-.79-6.81-1-9.85-.09-1.23-.17-2.4-.27-3.47a135.17,135.17,0,0,1,8.12-42c4.39-12.14,9.29-25,16.49-36.69,1.89-3.07,2-7.09,1.94-10.25-.15-5.3,1.54-7.7,6.48-9.18a51,51,0,0,1,15.07-2c4.83,0,9.82.45,14.65.89,3.24.3,6.6.6,9.93.77,4.89.26,6.65,4.29,6.66,8,0,4-2.47,6.67-7,7.47a40,40,0,0,1-6.82.47c-1,0-2,0-2.93,0h-.61c-2,0-3.94-.17-6-.32s-4.26-.3-6.44-.33h-1.76c-10.35,0-12.15,2.61-13.83,13-.47,2.9-.81,5.84-1.13,8.68-.25,2.21-.51,4.51-.83,6.73-.48,3.32.28,7.53,6.64,8.76a149.06,149.06,0,0,1,15.7,3.68,21.63,21.63,0,0,1,6.74,3.89c3.19,2.51,3.06,4.44,2.59,5.84-.4,1.17-2,5-5.38,5h-.33a95.58,95.58,0,0,1-18.36-3.29l-.73-.2c-3.16-.85-5.24-1.42-7-1.42-5.33,0-6,4.44-7.06,11.15-.89,5.67-1.68,11.69-2.5,18.92-.34,3.07.25,5.55,1.77,7.39s3.91,2.92,7.06,3.16l2.13.15a60.28,60.28,0,0,1,12.56,1.78,62.75,62.75,0,0,1,14.43,6.63c1.79,1.07,4,3.5,2.7,5.81s-4,4.35-6.63,6.29c-.42.31-.84.62-1.24.93h0A5.73,5.73,0,0,1,1128.39,145.75Z"/></g><g id="Layer_12" data-name="Layer 12"><path class="cls-1" d="M1208.31,136.05c-2-.11-4-.18-6.09-.25a146.12,146.12,0,0,1-15.36-1.06c-9.69-1.36-16.59-8.79-16.76-18.07-.13-6.85.81-13.94,1.72-20.8.28-2.15.57-4.29.83-6.44a17.91,17.91,0,0,1,.94-3.51,20.58,20.58,0,0,0,1.28-5.33c.69-10.39,4.79-19.55,9.13-29.24,1.83-4.09,3.72-8.32,5.32-12.62,3-8.15,8.23-12.29,17.41-13.85a123,123,0,0,1,20.73-1.94,79.74,79.74,0,0,1,19.08,2.2l.39.09a21,21,0,0,1,3.8,1.17c3.84,1.82,4,4.33,3.73,6.06s-1.17,4.62-4.8,4.88c-1.61.11-3.3.17-5.17.17-3.14,0-6.37-.16-9.49-.31l-1.43-.07a34,34,0,0,1-4.26-.57c-1.29-.23-2.63-.46-4-.59s-2.47-.19-3.37-.19c-6.17,0-7.75,3.32-9.81,8.73-.8,2.1-1.81,4.13-2.87,6.28a66.4,66.4,0,0,0-3.48,7.85c-.92,2.62-1.7,5.37-.37,7.66,1.42,2.47,4.5,3.06,7.48,3.63a116.75,116.75,0,0,1,18.74,4.88,7.56,7.56,0,0,1,3.46,3.68c-.15,1.09-2,3.34-4.24,4.7a10.43,10.43,0,0,1-5.6,1.51c-3,0-6.11-1-9.43-1.94l-.43-.13a12.86,12.86,0,0,1-1.47-.59,10.67,10.67,0,0,0-4.29-1.16l-.55,0c-2.23.2-6.43,2.11-6.89,5.21-1.16,7.78-1.8,15.59-2.23,21.52a8.29,8.29,0,0,0,2,6.5c1.08,1.17,3.14,2.56,6.77,2.58h5.74c4.5,0,9.14,0,13.7.1,5.83.12,10,3.37,10.51,8.08.51,5.24-3,9.28-8.78,10.07a127.6,127.6,0,0,1-14.31.85C1213.23,135.88,1210.82,135.94,1208.31,136.05Z"/></g><g id="Layer_13" data-name="Layer 13"><path class="cls-1" d="M1255.81,167.78a19.62,19.62,0,0,1-3.09-.25,7.59,7.59,0,0,1-1.7-.44,8.67,8.67,0,0,1,.83-2.21c3.2-6.58,6.05-13,8.48-19.24,1-2.48-.16-5.65-1.43-7.61-3.51-5.44-3.19-9.89,1-14.43,1.58-1.69,3.12-2.51,4.72-2.51a7.92,7.92,0,0,1,4,1.35c11.12,6.77,12.93,9.67,12.94,20.7,0,5.64-2.72,11.61-7.5,16.39C1269,164.7,1262.11,167.78,1255.81,167.78Z"/></g><g id="Layer_14" data-name="Layer 14"><path class="cls-1" d="M71,350.62a19.16,19.16,0,0,1-2.1-.12c-13-1.46-23.24-3.42-32.11-6.18-10.11-3.14-14-9.9-12.4-21.25a136.39,136.39,0,0,1,5.33-22.28c4.25-13.08,6-26.94,5.42-42.38a81.45,81.45,0,0,1,.81-15.81c1-6.49,5.42-10.69,11.18-10.69h.24c6,.12,10.27,4.1,11.57,10.9l.16.82a24.51,24.51,0,0,1,.59,4.11c.07,3.51.06,7,0,10.75,0,1.53,0,3.09,0,4.7v.16l0,.16c1.6,14.8-2.42,29-6.67,44.06-.44,1.57-.89,3.14-1.32,4.71-1.14,4.07-1.77,6.91-.24,9.27s4.34,2.94,8.49,3.58c1.24.19,2.48.35,3.73.51A67.17,67.17,0,0,1,72,327.08c7.12,1.85,11.17,7.12,10.34,13.44C81.47,347,77.44,350.62,71,350.62Z"/></g><g id="Layer_15" data-name="Layer 15"><path class="cls-1" d="M176.49,335.65c-5.35,0-10-3.6-11.8-9.15-1.09-3.36-1.89-6.92-2.66-10.36-.95-4.28-3.68-6.7-8.32-7.4-6.84-1-14-2.35-21.27-3.92a9.82,9.82,0,0,0-2.16-.25c-4.51,0-6.39,3.56-7.29,5.28l-.46.85a81,81,0,0,1-6.62,11.12,9.37,9.37,0,0,1-7.43,4,7.72,7.72,0,0,1-3.16-.66c-2.3-1-4.14-4.77-3-9.66a58.83,58.83,0,0,1,3.56-9.75l.81-1.89,3.06-7.24c4.51-10.7,9.18-21.75,14-32.5,3.1-6.88,6.5-13.79,9.78-20.48,1.7-3.45,3.4-6.91,5.06-10.38.58-1.21,1.11-2.43,1.61-3.61s.94-2.19,1.44-3.24c2.06-4.33,5.73-6.92,9.8-6.92a11.32,11.32,0,0,1,8.25,3.95A30.59,30.59,0,0,1,165,231.8a191.36,191.36,0,0,1,15.1,50.72c1.05,7.14,2.68,14.25,4.26,21.14.78,3.36,1.58,6.84,2.29,10.26.43,2.05.78,4.18,1.13,6.24.14.89.29,1.77.44,2.65-.33,6.89-3.89,11.6-9.55,12.64A12.36,12.36,0,0,1,176.49,335.65Zm-31.93-68.48c-.33.72-.68,1.43-1,2.14a42.66,42.66,0,0,0-2.47,5.76c0,.07-2,6.66,1.64,8.38a10.76,10.76,0,0,0,4.49,1,8.46,8.46,0,0,0,3.66-.76c2.6-1.25,3.59-5.2,3.32-7.57a31.47,31.47,0,0,0-1.59-6.2c-.25-.74-.5-1.47-.72-2.22l-.6-2-5.78-.31Z"/></g><g id="Layer_16" data-name="Layer 16"><path class="cls-1" d="M239.7,342.78a15.44,15.44,0,0,1-2.12-.15c-6-.86-13-2-18.88-4.61a17.27,17.27,0,0,1-7.87-8.19c-8-18.31-12-33.53-12.54-47.9-.41-10.79,0-21.85.48-32.55q.16-4.06.32-8.13c.13-3.78,2.16-6.72,6.21-9a8.49,8.49,0,0,1,4.08-1.23c2.18,0,3.7,1.3,4.51,3.87A66.39,66.39,0,0,1,216,246.15c.1.69.19,1.4.28,2.11l-1.43.1v2.8c0,2.87,0,5.8-.09,8.64-.1,6.54-.21,13.31.24,20a289.06,289.06,0,0,0,3.88,30.35c1.21,7,4.72,10.51,10.42,10.51h.59c7.89-.35,13.92-4.65,15.37-11l.58-2.52c3.21-13.92,6.52-28.32,4.4-43.46-.78-5.56-.26-11.54.34-17.19.5-4.7,3.23-7.8,7.31-8.3a5.81,5.81,0,0,1,.72-.05c2.83,0,5.59,2.28,8.22,6.78,5.79,9.93,8.77,21.15,9.1,34.31.3,11.89-4.1,22.9-8.9,33-3.1,6.52-7.52,12.71-11.8,18.69-1.13,1.58-2.26,3.16-3.37,4.75C249.62,338.93,245.68,342.78,239.7,342.78Z"/></g><g id="Layer_17" data-name="Layer 17"><path class="cls-1" d="M300,336.45a6.36,6.36,0,0,1-.87-.06c-3.76-.53-6.06-3.88-6-8.73.06-5,.1-10,.15-15,.14-16.83.3-34.23,1-51.29.33-8.2,1.77-16.6,3.17-24.72.34-2,.69-4,1-6,.72-4.38,3.55-7.13,7.78-7.54,10.58-1,21.88-1.69,33.59-1.92H340c4.75,0,6.76,4.22,7.4,6,1.1,3.11.16,6.1-2.88,9.13-3.72,3.71-8.41,5.77-14.77,6.48-16.84,1.87-18,3-20.12,19.88l-.1.76c-.06.44-.12.87-.17,1.31-.32,2.77.21,4.95,1.58,6.49a7,7,0,0,0,5.44,2.15,12.26,12.26,0,0,0,1.45-.09c1.23-.14,2.49-.25,3.73-.35V273h2.91c1.07,0,2.14,0,3.22-.07s2-.06,3-.06A25.55,25.55,0,0,1,334,273c2.07.25,3.54,1.11,4.15,2.4s.31,3.22-.9,5.08c-4.15,6.4-8.77,9.28-15,9.35a5.77,5.77,0,0,0-.84.09c-11.75,1.72-12.7,4.13-12.36,15.66.2,6.84-.47,14.25-2.16,24.05C306.13,334.35,302.86,336.45,300,336.45Z"/></g><g id="Layer_18" data-name="Layer 18"><path class="cls-1" d="M425.61,337.63a9.75,9.75,0,0,1-8.57-5c-1.36-2.19-1.93-5.28-2.48-8.27-.13-.66-.25-1.32-.38-2a8.4,8.4,0,0,1,.22-2.45c.13-.69.25-1.4.32-2.15.35-4.16.36-8.79-2.29-11.68-1.71-1.86-4.25-2.76-7.77-2.76a33.94,33.94,0,0,0-4.37.33l-2.65.36c-3.31.45-6.74.91-10.08,1.17-5.15.41-8.87,2.93-11.72,7.95-3.14,5.55-6.63,11.14-10.68,17.09a16.12,16.12,0,0,1-4.65,4.14,6.22,6.22,0,0,1-3.24,1.12,2.48,2.48,0,0,1-2-.93c-1.69-1.95-2.89-4.72-2.73-6.31a20.5,20.5,0,0,1,2.35-6.35c.61-1.25,1.25-2.54,1.77-3.89,2-5.09,4-10.28,5.89-15.29q1.22-3.21,2.45-6.42c.21-.55.39-1.12.57-1.7a8.34,8.34,0,0,1,.88-2.2c11.35-15.66,19.37-33.28,27.14-50.31l.9-2A79.23,79.23,0,0,1,405.72,223c2.22-2.68,4.45-4,6.64-4,1.87,0,3.91,1,6.08,2.87a29,29,0,0,1,7.86,11.67c8.76,24.87,13.73,51.87,13.3,72.25-.22,2.33-.4,4.69-.57,7a156.14,156.14,0,0,1-1.75,15.9c-.82,4.61-4.07,7.72-9.14,8.75A12.38,12.38,0,0,1,425.61,337.63Zm-19.8-83.75c-.7.65-1.27,1.12-1.74,1.5a6.83,6.83,0,0,0-2.31,2.7c-2.68,6.68-5.71,14.24-8.38,21.88-1,2.76,1.55,6.42,3.7,7.35a20,20,0,0,0,7.69,2h0a7.34,7.34,0,0,0,5.52-2.18c2-2.07,2.8-5.37,2.6-10.42-.19-4.51-.71-9-1.27-13.82-.26-2.25-.54-4.59-.79-7.07l-.61-6Z"/></g><g id="Layer_19" data-name="Layer 19"><path class="cls-1" d="M419.77,199.53A4.79,4.79,0,0,1,416,197.6a3,3,0,0,1-.32-2.86,10.58,10.58,0,0,1,4-4.81,182.81,182.81,0,0,1,20.05-11.31,10.88,10.88,0,0,1,4.34-.89,5.91,5.91,0,0,1,2.59.48c.8.44,1.86,1.8-.12,6-1.2,2.54-2.6,4.38-3.82,5-5.37,2.88-11.09,5.44-16.62,7.91l-4.84,2.18a4.3,4.3,0,0,1-1,.15Z"/></g><g id="Layer_20" data-name="Layer 20"><path class="cls-1" d="M480.2,351.9c-10.24,0-16.12-8.34-22.36-17.17l-1.37-1.94a30.85,30.85,0,0,1-3-6.06c-.2-.48-.39-1-.59-1.43-.77-1.82-.63-2.68-.56-2.82a2.55,2.55,0,0,1,1.28-.22,8.75,8.75,0,0,1,1.36.12c3.43.55,6.92,1.23,10.29,1.89,4.35.84,8.84,1.72,13.33,2.35a38.91,38.91,0,0,0,5.2.37,27.16,27.16,0,0,0,7.21-.9c4-1.09,5.71-3.3,6.48-4.95s1.37-4.59-.46-8.59l-.87-1.91a141.7,141.7,0,0,0-9.29-18c-6.95-10.8-11-21.76-12-32.56-1.31-13.88,6.57-23.58,13.41-29.28a21.91,21.91,0,0,1,14.32-5.25,31.87,31.87,0,0,1,12.35,2.76c3.28,1.39,6.25,3.82,9.39,6.39.87.71,1.73,1.42,2.6,2.1h0a4.92,4.92,0,0,1-1.85,1.29h-.21a33.88,33.88,0,0,1-6.66-.92l-2.33-.45a17.73,17.73,0,0,1-1.91-.51,23.61,23.61,0,0,0-2.39-.64l-.13,0a34.22,34.22,0,0,0-6.53-.84,12,12,0,0,0-9.22,3.84c-5.33,5.67-4,12.45-2.61,17.06a26,26,0,0,0,3,6c.34.55.68,1.1,1,1.66,2.41,4.18,5,8.36,7.44,12.41,5.25,8.6,10.68,17.49,14.88,26.67,5.42,11.86,5.14,23-.82,32.3-6.58,10.26-19.9,17.15-33.12,17.15-.61,0-1.22,0-1.83-.05h-.27l-.27,0A21.83,21.83,0,0,1,480.2,351.9Z"/></g><g id="Layer_21" data-name="Layer 21"><path class="cls-1" d="M619.6,348.08c-14-3.8-27.07-7.53-34.2-21.33-.79-1.52-1.6-3-2.41-4.54a102.54,102.54,0,0,1-6.07-12.58c-5.19-13.85-4.63-28.67,1.67-44.05,6.87-16.78,18.8-27.94,35.49-33.19a25.64,25.64,0,0,1,7.84-1.19c6.54,0,12.85,2.21,19.54,4.55l.44.15a23.63,23.63,0,0,1-6.65,1.69c-9,.73-16.69,4.85-23.48,8.47-10.3,5.52-12.2,15.06-12.73,21.77-.09,1.13-.18,2.26-.28,3.39a129.75,129.75,0,0,0-.66,18.43c1.22,20.26,10.69,31.74,29.81,36.13a10.81,10.81,0,0,0,2.46.29,8.27,8.27,0,0,0,2.59-.39,7.29,7.29,0,0,1,2.24-.39c2.78,0,4.67,2.11,7.45,5.58l.28.35a5.16,5.16,0,0,1,.14,2.59C636.05,341.44,629.33,346.79,619.6,348.08Z"/></g><g id="Layer_22" data-name="Layer 22"><path class="cls-1" d="M735.77,343.8a19.29,19.29,0,0,1-3.39-.32c-5.92-1.08-9.55-6.06-9.25-12.71a158.89,158.89,0,0,1,3.38-23.62l0-.12c2.25-11.17.59-12.67-8.86-15.33-4.58-1.28-9.27-2.24-13.82-3.17-1.29-.26-2.58-.52-3.87-.8a10.55,10.55,0,0,0-2.11-.23c-3.63,0-6.3,2.26-7.33,6.2-1,3.71-2,7.4-2.95,11.1-1.64,6.12-3.34,12.46-4.89,18.74-1.65,6.65-4.07,9.68-8.63,10.81a16.56,16.56,0,0,1-3.89.48c-2.38,0-6.72-.61-9-4.76-1.14-2-1.68-4.59-2.32-7.56-.27-1.31-.56-2.66-.92-4.07.51-1.91,1-3.85,1.54-5.8,1.36-5.08,2.75-10.32,4.06-15.58,1-4.15,2-8.38,3-12.47,1.38-5.9,2.81-12,4.38-17.95l.71-2.73c2.07-7.87,4.2-16,7.2-23.56,1.39-3.51,5-6.77,8.06-9.21a7.5,7.5,0,0,1,4.61-1.86c2.71,0,4.9,2,5.87,5.41a23.28,23.28,0,0,1,.41,7.79c-.21,3.11-.57,6.29-.92,9.36-.3,2.61-.6,5.3-.83,8-.45,5.53,2.55,9.14,8.23,9.91,4.53.61,9.14,1.49,13.6,2.34l3.95.74a19,19,0,0,0,3.46.38c6.13,0,7-5.46,7.44-8.08q.42-2.67.83-5.35c.74-4.84,1.51-9.84,2.57-14.65a26.35,26.35,0,0,1,3.52-8.63c2.24-3.43,5.1-5.32,8.06-5.32s5.79,1.79,8.16,5A28.77,28.77,0,0,0,759,240c4,3.9,5.36,8.56,4.26,14.69q-2.35,13-4.66,26c-2.2,12.4-4.48,25.23-6.81,37.82a106.81,106.81,0,0,1-4,16C745.68,340.68,741.62,343.8,735.77,343.8Z"/></g><g id="Layer_23" data-name="Layer 23"><path class="cls-1" d="M810.56,347.76l-1.43,0A18.3,18.3,0,0,1,794.34,340a57.17,57.17,0,0,0-8.17-8.84c-5.92-5.1-8.68-12.22-8.95-23.07-.28-11.31-.28-22.83-.27-34,0-7.33,0-14.91-.07-22.37a25.42,25.42,0,0,1,6.17-16.91,19.63,19.63,0,0,1,6-4.81,6.54,6.54,0,0,1,2.91-.84c1.72,0,2.87,1.25,3.42,3.73a97.72,97.72,0,0,1,1.46,9.92c.06.55.13,1.1.19,1.64l-.12,0v2.62q0,6.78.07,13.56c.07,10.41.15,21.16-.2,31.7-.37,11.21,5.94,18.35,12,25.26l.26.29a8.62,8.62,0,0,0,6.64,2.7,13.67,13.67,0,0,0,10.86-5.49c2.56-3.59,4.19-7.83,5.65-11.86a112.39,112.39,0,0,0,4.29-14.73c2.22-10.33,4.31-20.86,6.34-31q1-5,2-10c.24-1.18.42-2.35.6-3.49a38.07,38.07,0,0,1,1.24-5.93c1.08-3.28,3.4-5,7.09-5.19l.84,0c2.58,0,5.81.63,6.55,3.66l.35,1.43c1.74,7,3.52,14.31,2.76,20.9a508,508,0,0,1-9.17,53.22c-2.9,12.79-10.29,22.5-22,28.88C824.38,345.72,817.63,347.76,810.56,347.76Z"/></g><g id="Layer_24" data-name="Layer 24"><path class="cls-1" d="M936.78,351.86c-4.52,0-8.69-2.62-11.44-7.19-1.63-2.71-3.24-5.51-4.8-8.21-2.2-3.84-4.48-7.8-6.88-11.63a47.57,47.57,0,0,0-7.37-9.07c-1.29-1.22-3-2.62-5.1-2.62-4.1,0-5,4.77-5.31,6.34-.41,2.15-.79,4.32-1.17,6.49a157,157,0,0,1-3.65,17.13c-1.58,5.4-5.57,8.5-10.93,8.5a15.82,15.82,0,0,1-2.25-.17c-5.68-.88-9.42-4.83-9.78-10.3a75.75,75.75,0,0,1,.22-12.95c2.38-21.93,4.85-44.62,7.71-66.91a166.7,166.7,0,0,1,5-24.43c2.13-7.46,6-10.78,12.54-10.78a25.79,25.79,0,0,1,4.93.52l.16,0a23.41,23.41,0,0,0,4.43.56,9.74,9.74,0,0,0,2-.19,28.5,28.5,0,0,1,5.34-.52c7.93,0,15.87,3.6,22.34,10.13,7.52,7.59,12.15,18.07,12.07,27.36,0,1.06,0,2.12,0,3.17v1c.44,10.75-3.23,20.43-10.92,28.76-3.64,3.95-4,8-1,12.54,3.36,5.05,6.57,10.28,9.53,15.57a59,59,0,0,1,4.49,10c2.38,6.94.42,13.27-4.89,15.73A12.56,12.56,0,0,1,936.78,351.86Zm-34.95-69.44,4.72,2.64,1.15-.29c6.68-1.66,10.94-5.94,12.31-12.36,1-4.91,1.61-11.2-3.43-16.27l-.71-.72-5.54-.78Z"/></g><g id="Layer_25" data-name="Layer 25"><path class="cls-1" d="M1008.67,342.52c-15.33,0-28.89-5.56-40.31-16.53-7-6.72-8.09-11.66-7.93-24,3.05-29.05,17.89-51.3,44.13-66.13a31.75,31.75,0,0,1,16.26-4c5.93,0,12.16,1.17,18.17,2.3l1.49.27a4,4,0,0,1,1.29,1.22,6.91,6.91,0,0,1-2,2.56,8.86,8.86,0,0,1-2.1.39c-.39,0-.77.09-1.14.15-13.9,2.1-25.83,8.51-34.48,18.54-4.79,5.54-8.93,12.76-12.34,21.45-4.38,11.2-.06,21.77,4.74,30.63,2.83,5.22,8.47,8.21,15.47,8.21h1c6.31,0,11.61,2.93,17.22,6,2,1.12,4.14,2.28,6.3,3.3a2,2,0,0,1,1.2,1.32,5.88,5.88,0,0,1-1.12,4.4c-3.84,6.05-10.28,8.23-15,9A68.77,68.77,0,0,1,1008.67,342.52Z"/></g><g id="Layer_26" data-name="Layer 26"><path class="cls-1" d="M1065.3,349.63c-.31,0-.63,0-1,0-5.85-.37-10.27-4.76-10.28-10.2a73.72,73.72,0,0,1,1.34-12c.12-.77.25-1.54.38-2.31.82-5.17,1.77-10.42,2.68-15.5.47-2.67,1-5.35,1.42-8a9.78,9.78,0,0,0,.12-1.51,4.4,4.4,0,0,1,0-.58c3.2-9.42,4.11-19.23,5-28.71.33-3.49.66-7.1,1.11-10.6,1.31-10.29,6.65-19.44,12.22-27.79,2.37-3.55,5.68-5.51,9.32-5.51a10.55,10.55,0,0,1,3.68.68c5.44,2,10.92,9.62,10.11,14a205.5,205.5,0,0,1-5.9,23.18c-.93,3-1.66,5.36-.41,7.49s3.81,2.68,6.5,3.24a28,28,0,0,0,5.92.61c5.05,0,9.83-1.22,14.45-2.4,2.5-.63,4.87-1.24,7.28-1.66,4-.7,5.4-7.38,5.42-7.44,1-5.18,1.92-10.44,2.8-15.54.74-4.26,1.5-8.68,2.31-13a35.88,35.88,0,0,1,2.47-7.89,10.26,10.26,0,0,1,9.08-6.14,7.64,7.64,0,0,1,1.44.13c4.47.81,7.47,4.33,7.83,9.18.19,2.61.14,5.23.09,8,0,1.26,0,2.51,0,3.77v2.65l1,.13q-.95,6.78-1.85,13.56c-1.73,12.7-3.51,25.82-5.6,38.65-1.55,9.53-3.69,19.17-5.75,28.49q-.94,4.26-1.87,8.52c-1.3,6-5.31,9.53-11,9.61h-.34c-6.68,0-10.41-2.88-11.42-8.81-.68-4,0-8.6.66-13l.25-1.7c.52-3.61,1.36-7.3,2.16-10.87.45-2,.91-4,1.32-6.06.71-3.52-.3-5.67-1.27-6.86a7.5,7.5,0,0,0-6.12-2.51h-.38c-8.35.25-18,.57-27.52,1.15-6.5.4-7.61,5.89-8.28,9.18-.06.29-.13.59-.19.88-.87,4-1.71,8.11-2.52,12.06-1.39,6.77-2.82,13.77-4.46,20.58S1071.42,349.63,1065.3,349.63Z"/></g><g id="Layer_27" data-name="Layer 27"><path class="cls-1" d="M16.6,544.86a11.66,11.66,0,0,1-9.37-5,13,13,0,0,1-2.06-7.42c.41-11.93,1-24.07,1.62-35.81q.51-10,1-20l0-1a109.67,109.67,0,0,0,0-15.38,18.68,18.68,0,0,0-4.18-9.5c-3.8-4.65-4.57-9.15-2.45-14.17,1.74-4.07,5-5.81,10.81-5.81h.8c.66,0,1.33,0,2,0l2.43,0,2.37,0a38.81,38.81,0,0,1,6.22.4c3.66.61,6.42,1.71,7.38,2.94a61,61,0,0,1,9,15.81c2.13,5.73,3.74,11.84,5.29,17.75.72,2.75,1.46,5.6,2.26,8.39a12.29,12.29,0,0,0,1,2.35l.35.7.71,1.52,5.71.66.72-2.41,1.89-6.34c1.4-4.74,2.86-9.65,4.38-14.43.52-1.65,1-3.31,1.52-5a96.67,96.67,0,0,1,5.33-14.82c2.39-4.9,6.4-9.33,9.62-12.65a13,13,0,0,1,9.31-4.16,11.37,11.37,0,0,1,10.26,6.64c2.51,5.08,4.17,11.44,5.24,20,1,8,1.64,16.2,2.26,24.14.49,6.24,1,12.7,1.68,19.05l.06.6c1.26,11.8,2.45,22.95-.61,34a38.79,38.79,0,0,1-4.87,10.41,10.85,10.85,0,0,1-9.71,5.46,17.32,17.32,0,0,1-3.68-.42c-5.16-1.13-8.45-4.44-9.28-9.34-1-6.16-1.53-12.59-2-18.81-.2-2.7-.42-5.49-.67-8.24l-.64-6.65-.18-1.92-5.35-1.84-1.3,1.79c-.71,1-1.43,1.95-2.15,2.93-1.58,2.13-3.21,4.33-4.74,6.59-4.38,6.45-8,9.32-11.61,9.32-3.07,0-6.83-1.88-11.82-5.94a10.3,10.3,0,0,0-2-1.2L38,507.41l-4.12-2.26-.31,4.69c-.07,1-.1,2-.12,2.95a21.05,21.05,0,0,1-.38,4.33c-.48,1.91-.91,3.86-1.32,5.76-1.17,5.39-2.28,10.49-4.54,15S21,544.86,16.6,544.86Z"/></g><g id="Layer_28" data-name="Layer 28"><path class="cls-1" d="M189.59,548.79c-4.34,0-7.9-2-9.51-5.45-2.89-6.09-4.56-13.08-5.91-19.15l-.15-.7c-.93-4.22-1.66-7.55-6.59-7.55a36,36,0,0,0-3.74.3,39.89,39.89,0,0,1-4.52.32,13.88,13.88,0,0,1-3.72-.43,11.9,11.9,0,0,0-3.28-.5c-4.72,0-7,3.53-8.63,6.11-3,4.64-6.1,8.06-9.33,10.16a9.39,9.39,0,0,1-2.59,1.29,10.16,10.16,0,0,1,.3-3.54l.08-.38,0-.38q-.27-5.92-.5-11.85c-.36-8.67-.73-17.64-1.27-26.47-1.26-20.71,4.35-40.37,16.67-58.44,3-4.4,7.22-6.83,11.86-6.83a15.66,15.66,0,0,1,11.37,5.44c11,11.84,15.79,26.88,18.76,38.65.54,2.15,1.12,4.29,1.7,6.44,1.28,4.79,2.62,9.74,3.51,14.63,1,5.45,1.7,11.1,2.38,16.56.41,3.26.84,6.63,1.32,10,.37,2.56.85,5.13,1.32,7.61.35,1.87.71,3.81,1,5.7l0,.19a41.86,41.86,0,0,1,.75,6.74c0,5.84-2.39,9.52-7.11,10.94A14.5,14.5,0,0,1,189.59,548.79Zm-33.83-81-.2,2.75c-.11,1.5-.23,3-.35,4.5-.36,4.6-.73,9.36-.83,14.1a4.74,4.74,0,0,0,1.59,3.4c.52.54,2.4,2.29,4.48,2.29h0a3.75,3.75,0,0,0,.82-.09c2.13-.49,6.08-3.19,5.75-6.38-.48-4.61-1.28-9.21-2.06-13.65-.26-1.49-.52-3-.76-4.47l-.43-2.53Z"/></g><g id="Layer_32" data-name="Layer 32"><path class="cls-1" d="M242.75,551.65c-4.53,0-7.39-1.8-9.29-5.83a13,13,0,0,1-1.11-3q-1-5.66-2.09-11.3c-2.07-11.06-4.2-22.5-5.8-33.79a41,41,0,0,1,.25-9.78,70.15,70.15,0,0,0,.49-7.18,15.16,15.16,0,0,0-2.49-7.91c-1.9-2.92-3.93-5.77-5.89-8.53s-3.89-5.47-5.7-8.25c-1.93-3-3.78-6.11-5.57-9.14-1.62-2.74-3.29-5.58-5-8.32a15.46,15.46,0,0,1-2.09-12.11c.71-3.3,2.52-6.67,10.6-6.67,5,.23,9.56,3.81,13.52,10.64,2.08,3.59,4.13,7.3,6.11,10.89s4.16,7.55,6.34,11.29c1.13,1.95,2.84,4.88,5.85,4.88,2.39,0,4.16-1.84,5.91-3.9,4.45-5.23,8.9-10.59,13.19-15.79l6.59-7.93a11.77,11.77,0,0,1,1.06-1.07l.48-.46c3.7-3.57,7.52-5.46,11.05-5.46a10.36,10.36,0,0,1,7.05,2.91c5,4.52,5,12-.05,18.57-5.47,7.17-11.09,14.41-16.52,21.42q-3.45,4.44-6.89,8.89c-.17.21-.32.45-.48.68s-.11.18-.17.26c-9.93,6.27-9.49,16.54-9.17,24,.44,10.21.65,21.43.69,35.3a37.16,37.16,0,0,1-1.4,9.55c-1.17,4.41-4,6.78-8.27,7.05C243.51,551.64,243.13,551.65,242.75,551.65Z"/></g><g id="Layer_30" data-name="Layer 30"><path class="cls-1" d="M298.84,509c-1-.13-2-.22-3-.31a35.79,35.79,0,0,1-5.88-.87c-5.24-1.44-8.11-5.29-7.88-10.58.25-5.68,3.39-9.38,8.41-9.9a90.46,90.46,0,0,1,9.33-.47,113.81,113.81,0,0,1,11.87.65c4.38.46,7.55,4.76,8,8.48a9.78,9.78,0,0,1-6.16,9.89A70.11,70.11,0,0,1,303,508.57l-3,.61Z"/></g><g id="Layer_31" data-name="Layer 31"><path class="cls-1" d="M341.83,555.76c-6.94,0-13.15-3.8-17-10.43a4.59,4.59,0,0,1-.52-3.6,3.47,3.47,0,0,1,1.83-2.19c12.52-6.38,26-13.14,39.73-19.32,4.2-1.9,8.2-4.78,6-11.86-2.32-7.53-6.33-12.8-12.24-16.09-3.32-1.86-6.64-3.92-9.85-5.92l-1.57-1a4.88,4.88,0,0,1-1.34-1.08,4.67,4.67,0,0,1,1-1l.48-.37a13.51,13.51,0,0,0,3.84-4c3.26-6,8.33-10.68,16.41-15.3,3.05-1.74,4.78-5.19,4.75-9.47,0-6.1-3.5-12.26-8.4-15a32.67,32.67,0,0,0-4.07-1.8,28.25,28.25,0,0,1-3.26-1.41l-1.11-.6a26.89,26.89,0,0,1-6.47-4.26,7.54,7.54,0,0,1-1.83-3.55,6.68,6.68,0,0,1,3.92-2.48,29.27,29.27,0,0,1,4.06-.28,31.53,31.53,0,0,1,16.46,4.85c.82.5,1.62,1,2.43,1.56a50.21,50.21,0,0,0,4.54,2.76c10.18,5.24,15,13.23,14.38,23.74V458c.59,9.48-1.85,16.31-7.69,21.48-3.61,3.2-4.14,6.72-1.66,11.07a116,116,0,0,1,7.05,14.9,28.43,28.43,0,0,1-.38,22.45,25.88,25.88,0,0,1-15.23,13.68,98.82,98.82,0,0,0-13.7,6.36c-2.23,1.19-4.54,2.41-6.83,3.49l-1.47.71a38.16,38.16,0,0,1-7.58,3.05A20.64,20.64,0,0,1,341.83,555.76Z"/></g><g id="Layer_33" data-name="Layer 33"><path class="cls-1" d="M423.86,505.4c-5.27,0-8.79-3.85-10.82-7.07a8.66,8.66,0,0,1,4.17-12.64,40.92,40.92,0,0,1,7-1.79c1-.19,2-.38,3-.61,1.59.29,3.18.55,4.72.79a79.63,79.63,0,0,1,11,2.29c4.56,1.43,6.14,3.92,5.85,9.2-.18,3.15-1.5,7.11-6.78,8.08A100.08,100.08,0,0,1,424,505.4Z"/></g><g id="Layer_34" data-name="Layer 34"><path class="cls-1" d="M511.05,555.05c-.43,0-.86,0-1.28,0-9.64-.6-19.43-1.38-28.9-2.14q-7.9-.64-15.81-1.24c-5-.38-8.93-2.49-10.76-5.81-1.63-3-1.41-6.65.6-10.43,6.27-11.78,12.21-20.38,18.71-27.07,13.63-14,23.9-26.71,29.71-42.92a87.19,87.19,0,0,0,4-18.59,8.11,8.11,0,0,0-2-6.41c-2-2.28-5.26-3.53-9.12-3.53-.48,0-1,0-1.46.06-5.55.44-11.16,1.16-16.58,1.86l-1.87.24c4.06-5.94,13.19-12.48,19.55-13.26a23.35,23.35,0,0,1,3-.19c14.1,0,23.36,13,26,25.05,3.9,17.87-.45,34.65-13.3,51.31-5,6.54-10.63,12.6-16.55,19-2.69,2.91-5.46,5.91-8.21,9l-3.44,3.85,7.42,1.59,5.58,1.18,5.56,1.15c4.4.89,8.95,1.81,13.36,2.88a14,14,0,0,1,4.71,2.34,6.48,6.48,0,0,1,2.84,6,5.93,5.93,0,0,1-4,4.72A22.21,22.21,0,0,1,511.05,555.05Z"/></g><g id="Layer_35" data-name="Layer 35"><path class="cls-1" d="M571.26,545.09c-7.69,0-15.15-3.52-21-9.9-9.22-10.09-12.65-18.55-11.48-28.32,2.16-18.35,4.39-37.32,16-53.19a35.76,35.76,0,0,1,3.83-4.18c.79-.78,1.61-1.59,2.4-2.44,1.11-1.19,2.23-2.37,3.34-3.55,3-3.11,6-6.33,8.78-9.73,3.24-3.93,6.6-5.84,10.29-5.84h.49a128.83,128.83,0,0,1,20.71,2.57,14.63,14.63,0,0,1,10.59,8.68l1.43,3.26c3.64,8.31,7.42,16.9,10.59,25.5,6.84,18.53,3,35.66-11.76,52.37-9.13,10.35-21.11,16.75-32.68,22.12A27.33,27.33,0,0,1,571.26,545.09Zm12.45-94.37c-5.56,0-8.89,2.45-10.19,7.5-2.91,11.29-5.63,22.52-8,32.43l-2.39,9.84-.08.32v.33c-.16,7.83,1.68,13.94,5.32,17.65a13.08,13.08,0,0,0,9.56,3.92h0a21,21,0,0,0,9.39-2.48C608,509.85,615.13,492.71,608,470.65c-3-9.11-7.84-18.6-21.85-19.82C585.26,450.75,584.45,450.72,583.71,450.72Z"/></g><g id="Layer_36" data-name="Layer 36"><path class="cls-1" d="M676.28,539.62a11.24,11.24,0,0,1-3.72-.68c-2.87-1-6.3-3.31-6.39-8.53-.16-8.9-.23-19.39.4-29.72.4-6.53,1.15-13.19,1.87-19.63.45-4,.91-8.05,1.29-12.09a62.25,62.25,0,0,0,0-10c-.18-2.63-1.13-7-5.49-7a9.71,9.71,0,0,0-4.78,1.6c-.55.32-1,.68-1.53,1a7.56,7.56,0,0,1-1.46.91h-.24a7.86,7.86,0,0,1-3.29-.57,4.73,4.73,0,0,1,.14-1.9,74.46,74.46,0,0,1,6.68-6.06c1.36-1.14,2.76-2.32,4.12-3.55.67-.61,1.38-1.21,2.08-1.81a33.36,33.36,0,0,0,6.69-7c3.55-5.52,7.55-8.57,11.25-8.57a6.81,6.81,0,0,1,1.84.26c5.25,1.44,8,6,8.09,13.6.06,3.76,0,7.6,0,11.31,0,1.72,0,3.43,0,5.14v2.72l.88.09q-.69,7.35-1.36,14.72c-1.41,15.35-2.86,31.23-4.78,46.77-.55,4.47-2.61,9.59-6.29,15.64A6.79,6.79,0,0,1,676.28,539.62Z"/></g><g id="Layer_37" data-name="Layer 37"><path class="cls-1" d="M767.71,555.65a18,18,0,0,1-4.29-.55l-2.93-.71c-4.82-1.19-9.81-2.41-14.84-3.2a33.4,33.4,0,0,0-5.2-.36c-1.41,0-2.81.06-4.17.11l-2.53.09a30.28,30.28,0,0,0-3.41.34,25.32,25.32,0,0,1-2.58.28l-1.11,0c-9.1,0-13.19-4.11-13.66-13.75,0-.7,0-1.43,0-2.2,0-.38,0-.76,0-1.15-.1-9.62,4.21-17.85,8.77-26.57l.09-.16a94.49,94.49,0,0,1,32.95-36,18.73,18.73,0,0,0,8.29-12.54,21.64,21.64,0,0,0-4.15-16.62,15.31,15.31,0,0,0-12.33-5.85,16.74,16.74,0,0,0-8.26,2.16,7.24,7.24,0,0,1-.68.31,2.94,2.94,0,0,1,.08-.94c1.74-5.73,9-10.39,16.26-10.39a13.27,13.27,0,0,1,6.29,1.47c6.16,3.34,10.49,8.61,13.24,16.11.87,2.38,1.54,4.83,2.25,7.41.53,1.93,1.08,3.92,1.71,5.88,2.62,8.05.65,15.52-5.86,22.2a85.82,85.82,0,0,1-7.94,6.9A76.24,76.24,0,0,0,753.65,497c-6.25,7.18-11.54,15.26-16.66,23.08l-.93,1.41c-1.62,2.48-1.33,4.4-.8,5.58,1.18,2.61,4.22,3.32,6.41,3.63l1.85.27c6.16.86,12.53,1.76,18.64,3.07a30.33,30.33,0,0,1,9.15,3.69c5.1,3.12,7,8.11,4.89,13C774.41,555,770.11,555.65,767.71,555.65Z"/></g><g id="Layer_38" data-name="Layer 38"><path class="cls-1" d="M810.1,503.4c-6.63,0-10.87-4.83-12.61-14.36-1-5.22,2.88-9.78,9.55-11.35a133.76,133.76,0,0,1,13.27-2.24l3.41-.47,1,0c9.56,0,15.67,3.7,16.77,10.14,1,6.1-3.36,12.21-10.26,14.22a125,125,0,0,1-19.08,3.95A17.83,17.83,0,0,1,810.1,503.4Z"/></g><g id="Layer_39" data-name="Layer 39"><path class="cls-1" d="M890.14,546.46a9.71,9.71,0,0,1-1.68-.15c-4.49-.79-7.3-4.85-7.5-10.85-.08-2.34-.05-4.75,0-7.08,0-1.1,0-2.2,0-3.3v-2.55l-.71-.12L881.8,513q2.93-17.6,5.87-35.18c.3-1.74.66-3.51,1-5.23l.51-2.52,0-.27c1.08-5.41,1.56-7.88-.07-9.86a4.5,4.5,0,0,0-3.67-1.58c-1.58,0-3.49.51-6.66,1.34l-.58.16a1.73,1.73,0,0,1-.33,0,7.35,7.35,0,0,1-1.7-.3,7.45,7.45,0,0,1,.83-1.57c3-4.13,6.11-8.29,9.12-12.32,3.42-4.57,6.95-9.29,10.35-14a11.57,11.57,0,0,1,9.71-5,14.58,14.58,0,0,1,3.47.43,10.16,10.16,0,0,1,7.77,9.95,148.7,148.7,0,0,1-1.4,24.79c-1.88,12.6-4.33,25.51-7.49,39.46-2.54,11.25-5.68,23.14-9.88,37.41C897.24,543.7,894.19,546.46,890.14,546.46Z"/></g><g id="Layer_40" data-name="Layer 40"><path class="cls-1" d="M940,542.56c-5,0-8.42-2.86-8.71-7.29-1.08-16.72,2.81-32.89,11.55-48.08.62-1.09,1.72-2.33,4.65-2.33a12.72,12.72,0,0,1,2,.16c2.66.4,4.24,2,4.83,4.89.53,2.6.8,5.35,1.12,8.54.14,1.47.3,3,.49,4.73-.39,2.55-.77,5.22-1.17,8-1,7.2-2.1,14.64-3.54,22.12a11,11,0,0,1-10.84,9.29Z"/></g><g id="Layer_42" data-name="Layer 42"><path class="cls-1" d="M952.85,454.64c-5.79,0-6.57-2.89-6.59-5.37A9,9,0,0,1,949,443a10.09,10.09,0,0,1,7.06-3.05h.16c3.6.06,7.46,1.67,7.49,6a7.85,7.85,0,0,1-2.29,5.69,11.75,11.75,0,0,1-8.45,3.06Z"/></g><g id="Layer_41" data-name="Layer 41"><path class="cls-1" d="M993.65,548.89A51.67,51.67,0,0,1,981,547.25c-5.82-1.48-9.18-5.79-9-11.51.21-5.54,4-9.65,10-10.71,2.49-.44,5.09-.73,7.61-1l3.13-.37c4.39-.54,6.8-3.52,6.44-8-.41-5-1.81-11.19-9.15-14.92-7-3.55-10.22-9.86-10.13-19.84.06-8,3.45-13.58,10.66-17.68a35.3,35.3,0,0,1,17.89-4.58,47.49,47.49,0,0,1,5.85.37c1,.13,3.79.47,5,1.47,2.87,2.39,4,4.17,4,5s-1.56,3-3.2,4a102.7,102.7,0,0,1-10.77,5.57c-1.66.78-3.32,1.56-5,2.37-.83.42-1.63.88-2.55,1.41l-1.59.91-3.72,2.08,3.22,2.8c1.28,1.11,2.5,2.14,3.68,3.14,2.32,2,4.52,3.83,6.53,5.75,9.85,9.45,13.73,21.63,11.55,36.2-1.32,8.8-6.64,14.81-15.39,17.39A43.65,43.65,0,0,1,993.65,548.89Z"/></g><g id="Layer_29" data-name="Layer 29"><path class="cls-1" d="M1084.72,551.74a20.65,20.65,0,0,1-2.65-.19c-5.15-.71-9.16-5.7-9-11.14a55.8,55.8,0,0,1,1.93-11c.36-1.47.72-3,1-4.52.55-2.59,1.13-5.18,1.71-7.76,1-4.47,2-9.09,2.89-13.69a13.4,13.4,0,0,0-.27-5c-.13-.74-.26-1.5-.36-2.32l-.51-4.43-3.91,2.14c-6.43,3.52-10,7.88-11.19,13.71-1.12,5.38-2.06,10.87-3,16.18-.51,3-1,6-1.57,8.93-.13.73-.26,1.47-.38,2.21a42.76,42.76,0,0,1-1.6,7.06c-2,5.68-6.24,8.81-11.86,8.81a16.38,16.38,0,0,1-2.49-.2c-6-1-9.87-6-9.46-12.34a189.58,189.58,0,0,1,4-28.66,274,274,0,0,0,5.14-33.3c1.92-19.78,4.08-36.09,12.89-51.08l.41-.72c.35-.6.68-1.18,1-1.7,1.91-2.84,4.61-4.68,6.88-4.68a3.5,3.5,0,0,1,1.27.23c2.22.88,4.44,2.51,4.1,8-.22,3.4-.46,6.8-.7,10.2-.44,6.3-.9,12.81-1.2,19.25-.19,4.14-.18,7,1.74,9s4.51,2.08,7.83,2.08h1.35c14.42,0,25.05,10.23,25.86,24.88,1,17.9-1.1,31.92-6.56,44.11a31,31,0,0,0-1.59,4.87c-.24.9-.47,1.75-.74,2.57C1093.91,548.94,1090.28,551.74,1084.72,551.74Z"/></g></g></svg>