<svg xmlns="http://www.w3.org/2000/svg" viewBox="0 0 287.75 272.01"><g id="Layer_2" data-name="Layer 2"><g id="Layer_1-2" data-name="Layer 1"><path d="M231.44,150.48c2.8,1.88,5.57,7.31,11.07,4.54,3.74-1.53,7-5,9.52-8.57.48-2.56,1.5-2.65-.23-7.64s-5.8-7.87-.27-18.93-20.51-12.35-18.35.69Zm-.26-29.91c-.42-6.76-8-7.45-11.51-1.9-3.43,6-7-2.15-10.15-4.23-10.07-3.21-4.21,20.67-7.29,26-4.47-6.47-1.45-33.26-14.09-28.12-6,7.48-4.69,36.65-16.28,32.37-2-.57-6.59.35-4.83-4.19,2.14-10.12,2.61-22.8-2-32.25-8.57,3.22-3.51,12.82-4.44,19.78.56,10.68-5.61,23.49,10.51,23.19,4.62,1.69,6-6,8.66-1.83.17.28,2.49-.13,3-.83,3.1-14.07,11.9-9,14.85,1.92,3.14-5,4.54-3.86,7.59.6,7.91-4.09-.08-26.6,10.46-20.76,12.45-2.79,4.37,15.62,8.07,23.17,2.28-4,4.32-.35,5.64-3S231.61,127.32,231.18,120.57Zm-37.7,7.92a1.7,1.7,0,0,1-.17,1.32,1.74,1.74,0,0,1-1,.79,1.4,1.4,0,0,1-.41.05l-.16.17a1.72,1.72,0,0,1-2.93-1.21,11.4,11.4,0,0,1,.71-3.41c0-.3,0-.61,0-.91a1.7,1.7,0,0,1,1.05-1.57,1.72,1.72,0,0,1,1.12-.09l.41.17.34.27a5.44,5.44,0,0,1,1.09,2,4,4,0,0,1,0,2c0,.09-.06.17-.08.26A2.5,2.5,0,0,0,193.48,128.49Zm44.52-6.2a2,2,0,0,1,0-.35,1.68,1.68,0,0,1,.81-1.79c.44-.22,3.91.21,3.91.81v1.69a5.2,5.2,0,0,1-.23,2.5,1.73,1.73,0,0,1-1,.79,2,2,0,0,1-.91,0,1.77,1.77,0,0,1-.38-.15,1.7,1.7,0,0,1-1.69,0C238,125.47,238,122.33,238,122.29ZM237.18,142c2.09-9.78,5.19-2.37,6.84,3.88C239.72,153.6,236.7,148.13,237.18,142Z"/><path d="M262.09,125c-1.61-21.31-7.81-2.48-6.32,8.33a100.79,100.79,0,0,0-1.4,10.93C262.13,159.51,263.07,131.76,262.09,125Z"/><path d="M235.51,231.85c-12.71-8-9.79,49.83-14.48,28.48-1.61-28.16-14.5-37.16-24.51-6.2-2.64-6.9,2.82-18-4-22.57-4.8,1.9-2.27,11.29-6.3,14-11.13,5.19-2.12-25.58-13.06-15.38,1.26,17.94-7.24,27.63-11.5,4.76,11.59,3.54,9.47-10.83-1-8.69-21.66,16.24,5.86,21.37-2.56,37.45-23.26-14.29,1.66,24.44,11.5-2.64,11.71,23.11,6.74-26.21,18.34-1.41-.84,8.09,4.58,6.47,7.36,11,6.09-3.92,16.25-24.59,20-5.64,2.38,5.87,3.79,4.27,8.31,2.32,9.76,5.18,3.81-14,13.19-9.1,5,4.09,7.06,12.67,12.27,3-4.18-3.3-1.3-5.41-9.3-12.41C255.76,244.81,247.26,233.51,235.51,231.85Zm-24.37,14.94c0,.1-.09.18-.13.28s0,0,0,0a3.47,3.47,0,0,1,.07.79,4.42,4.42,0,0,1-.12.8,5.37,5.37,0,0,1-.34.83,1.78,1.78,0,0,1-.61.61,1.67,1.67,0,0,1-.87.23h-1a1.73,1.73,0,0,1-1.71-1.71,4.46,4.46,0,0,1,.09-.81,1.63,1.63,0,0,1,.07-.3,3.69,3.69,0,0,1,.29-.64,3.79,3.79,0,0,1,.25-.35,1.57,1.57,0,0,1,0-.23,1.73,1.73,0,0,1,.51-1.21,1.68,1.68,0,0,1,1.21-.5,1,1,0,0,1,.35,0,2,2,0,0,1,.77,0,1.24,1.24,0,0,1,.58.3,1.33,1.33,0,0,1,.45.49,1.27,1.27,0,0,1,.2.63A1.35,1.35,0,0,1,211.14,246.79Zm28.93-4a1.68,1.68,0,0,1-.44.75A1.71,1.71,0,0,1,238,244a10.57,10.57,0,0,1-1.7-.72,6.24,6.24,0,0,1-1.39-1.06,1.57,1.57,0,0,1-.31-.45,2,2,0,0,1-.4-.8,5.59,5.59,0,0,1-.12-1.29,1.77,1.77,0,0,1,.23-.87,1.36,1.36,0,0,1,.44-.48,1.28,1.28,0,0,1,.59-.3,1.57,1.57,0,0,1,.91,0,8.44,8.44,0,0,1,1.11.24,7.05,7.05,0,0,1,.76.3,1.69,1.69,0,0,1,.29.17,3.44,3.44,0,0,1,1,1,4.94,4.94,0,0,1,.33.7c.05.13.09.25.13.38.09.33.15.68.21,1A1.79,1.79,0,0,1,240.07,242.8Z"/><path d="M37.12,86.71c17.87-5.81,39.51-9,51.36-24.87,9.65-7,22.9-5.65,27.74-18.56,15.51-38.7,51.17-9.69,66.18,14,47.13-22.31,32.41,25.61,67,14.13,15.79-3.72,60,48.85,25.55,22.26C246.1,59.1,238,107,212.72,61.33c-4.77-6.38-11.51-1.77-17,.79-20.25,18.83-23-19.88-41.45-24.19-16.53-14-27.6,2-35.53,16.28-6.48,12.4-23,5-30.46,16.78-2.33,3.09-6.12,6.69-9.53,7C67.34,86.92-5.72,106.19,37.12,86.71Z"/><path d="M116.23,234.17c-1.44,8.47-.32,41.65-9.89,26.84-2.69-8.73,4.61-21.92-8.33-13-15-7.43-7.54,7.28-14.64,14.46-8.32,2.8-3.27-11.5-3.49-15.86-3.82-1.31-8,8.81-14.91,6-1.77-.24-3.27.28-2.53,3.39-6.8,23.61-7.86-16.49-3.83-24.15,2.09-7,15.8-8.89,18.47-1.46,2.6-.6,5.13-1.9,7.72-2,6.1.1,7.68,10.59,14.65,6.73,2.83-1.48,6.17-4.47,8.51-3.85,3.16.83,1.81-1.75,2.82-2C115.6,226.92,115.85,235.24,116.23,234.17ZM69.55,230.8c-4.17,2.22-2.24,7.52-4.61,11C71.64,243.28,70.93,235.22,69.55,230.8Z"/><path d="M54.3,169c-5.44,12.56-10.84,25.69-9.78,3.82-1-4.36-5.49-4.26-9.93,0-15.43,9.83-22.13-29.71-25.83,26,7.92,14.52,6-17.34,14.48-17.79,2.23,3,4.58,4.85,8.35,2.91,12.38-4-10.81,14.46,16.33,21,15.53-21.55,10-2.36,23.76-2.46C69.83,194.65,66.14,161.71,54.3,169Zm6.19,13.34a2.7,2.7,0,0,1-.1.59c0,.15-.12.3-.18.45l0,0,0,.06a3.32,3.32,0,0,1-.37.47.65.65,0,0,1-.12.11,3.27,3.27,0,0,1-.65.45,4.23,4.23,0,0,1-.58.25l-.19.07-.42.09a5,5,0,0,1-.88.1,3,3,0,0,1-.42,0,4.94,4.94,0,0,1-.84-.15l-.08,0a5.32,5.32,0,0,1-.5-.21l-.15-.08a3.41,3.41,0,0,1-.48-.37.57.57,0,0,1-.11-.11,3.1,3.1,0,0,1-.36-.49,3,3,0,0,1-.22-.56,3.42,3.42,0,0,1-.09-.63,4.46,4.46,0,0,1,.07-.65,1.42,1.42,0,0,1,0-.22,4.55,4.55,0,0,1,.27-.64,3.3,3.3,0,0,1,.32-.55,10.91,10.91,0,0,1,.79-1c.25-.26.5-.51.77-.74a1.68,1.68,0,0,1,.75-.44l.46-.06a1.77,1.77,0,0,1,.87.23l.34.27a1.32,1.32,0,0,1,.36.55,1.39,1.39,0,0,1,.15.66h0l.12.09a3.58,3.58,0,0,1,.73.62,3.27,3.27,0,0,1,.39.51,2.9,2.9,0,0,1,.25.57,2.78,2.78,0,0,1,.1.6Z"/><path d="M243,170.09c16.52-.52,5.37,20,2,28.08-2.32,5.87,6.41,3.93,6.49,8.88-2.89,5.29-15.69,5-20,1.27-1.05-.79-1.15-2.7-3.59-.63-15,13.6-24.24-10.18-20.29-22.58,10.73-31.63,34.75-1.16,22.92,19.27,9.72-3.42,11.13-18.82,15.3-27.3C234.9,180.68,233.59,174.11,243,170.09Zm-16.87,24c-7.3-25.2-13.82-9.68-13.81,6.94C214,209.31,225.12,198.87,226.16,194.09Z"/><path d="M41.94,134.68c7.82,11.13-23.22,23.93-25.14,5.68,3.91-15.29.86-46,24.65-27.91C47.19,118.66,34.13,123.55,41.94,134.68Zm-7.41-1.33c-5.72-5.06-8.24.14-10.57,5.13C25.7,146.06,35,141.46,34.53,133.35Zm-8.13-16.3c3.32,11.47,5.36,4.39,8.71.59C31.56,115,29.34,111.09,26.4,117.05Z"/><path d="M27,237.3c-19.19-5,19.4-18.3,12,2.49-6.36,23.38-17,13.94,2.9,27.35-7.68-.93-27.88,11.2-27.37.28C17.49,259.53,36,243.8,27,237.3Z"/><path d="M44,132.75c3.54-7.21-.58-21.6,7.76-24.68,7.23,3,1.05,10.45,1.47,15.8-.35,4.86,1.31,18.62,7.44,15.28s3.72-21.54,11.15-26C83.64,135,54,170.28,44,132.75Z"/><path d="M249.14,261.29c2.11-13.77,1-42.54,21.33-25.75,11.86,14.51-14.15,21.57-15,33.35C250.32,274.86,251.22,263.16,249.14,261.29ZM266,246c-2.08-2.69-3.28-10.75-7.28-6.91C255.63,246.28,261.11,257.56,266,246Z"/><path d="M85.34,122.82c4.46,11.68,12.33-15.55,17.35-7.82,1.69,7.88-7.18,11.35-11.16,16.82.14,3.7,15.64,18.91,5.45,13.84-13.29-16.16-12.07-4.09-22.21,2.15C75.28,137,78.88,92,85.34,122.82Z"/><path d="M261.17,172.78c14.1-17.49,23.48,7.64,13.66,19.14-4.9,5.94.78,8.75,4.38,12.87.63,6.82-34.35,10-14.73-11,2.21-5.06,15.18-19.69,3.28-19.16C264.46,175,262.71,177.62,261.17,172.78Z"/><path d="M142.4,166.42c15.16,1.7,5.71,17.93,11.6,26.38,7.19,15.87-17.67,23.92-19.7,10.15,11.15,2.59,16.18-8.92,7.12-16-.65-2.47,2.76-8.88,3.85-12C135.12,177.17,132.92,169.65,142.4,166.42Z"/><path d="M195.19,214.06c-13.47-5.07-14.44-7-4.51-17.66,4.64-10,12.53-22.08-3.3-23.27,3-12.35,25.14-3.3,16.34,11.52C184.64,211,209.59,207,195.19,214.06Z"/><path d="M283.76,127.81c-8,9,.69,19.24-1.65,20.62s-5.69-6-8.3-7.86c-2.91,2.54-1.15,7.32-4.57,10.25-6.84-7.22-3.48-28,.52-37C272.24,108.23,291.79,118.78,283.76,127.81Zm-9.82.53c4.12,3.64,6.12-8,2.49-9.36C271.16,120.1,272.92,123.93,273.94,128.34Z"/><path d="M16.69,238.59c-3.28,10.45-2.45,29.18-13.6,31.06-2.5-8.76,4.17-20.78-1-27.56C-6.4,231.91,13.72,229.88,16.69,238.59Z"/><path d="M81.26,195.16c1.81-11.29-13.45-18.1-10.1-27.13,24.26,22.83,9.06,5.47,28,5-.39,10.34-14.45,12.61-12.12,23.47C86.67,207.16,76.06,199,81.26,195.16Z"/><path d="M130.71,131.12c.59-8.2-2.91-13.08-7-19.17,4.51-4.1,19.56-4.76,23.16.82-4.51,4.79-12.07,5.69-10.72,14.23C137.33,139.7,128.31,149.35,130.71,131.12Z"/><path d="M106.06,139.75c4.71-9.55-5.4-22.91,5.54-28.25C119.08,116.71,115.29,155,106.06,139.75Z"/><path d="M150,1.47c-5.06,35.8-28.45-4.28-17.22-1.09C144.36,15.89,142.62-5.58,150,1.47Z"/><path d="M129.14,241.31c5.2.79,11.23-1.19,13.28,3.84C143.67,254.54,115,248.46,129.14,241.31Z"/><path d="M171.3,182.17c3.76,1.23,8.73-.33,9.83,3.65C178.26,193.43,159,185,171.3,182.17Z"/><path d="M119.42,191c-2-.13-3,.12-3.62-.29C99.46,181.85,135.16,183.33,119.42,191Z"/></g></g></svg>